<svg width="88" height="98" viewBox="0 0 88 98" xmlns="http://www.w3.org/2000/svg">
    <g fill-rule="nonzero" fill="none">
        <path d="M17.048 10.035C36.421 10.035 49.725 0 59.06 0S88 5.366 88 48.31c0 42.945-26.375 49.246-36.642 49.246-48.081.003-68.62-87.52-34.31-87.52z" fill="#FFF"/>
        <g fill="#641BB4">
            <path d="M17.743 80.637h5.601v2.8h-5.601zM33.847 80.637h5.602v2.8h-5.602zM26.845 87.639h2.801v5.601h-2.8zM26.845 71.534h2.801v5.602h-2.8z"/>
        </g>
        <path d="M64.306 28.473v5.601H12.49v-5.601c0-3.081 2.521-5.602 5.602-5.602h40.611c3.08 0 5.602 2.52 5.602 5.602z" fill="#E7DDF3"/>
        <path d="m64.306 34.074-.003 26.607a5.604 5.604 0 0 1-5.602 5.602H18.093c-3.081 0-5.602-2.52-5.602-5.602V34.074h51.815z" fill="#F3F3F1"/>
        <path d="M18.793 60.681V34.074h-6.302v26.607c0 3.081 2.521 5.602 5.602 5.602h6.302c-3.081 0-5.602-2.52-5.602-5.602z" fill="#D5DBE1"/>
        <circle fill="#E7DDF3" cx="59.404" cy="64.182" r="16.104"/>
        <path d="M56.603 71.884a2.097 2.097 0 0 1-1.484-.616l-4.901-4.901 2.971-2.972 3.308 3.305 7.626-8.797 3.174 2.75-9.103 10.503c-.38.44-.93.703-1.512.723-.031.005-.056.005-.079.005z" fill="#641BB4"/>
        <path d="M34.197 68.384H18.093c-4.249 0-7.702-3.454-7.702-7.703V28.473c0-4.25 3.453-7.703 7.702-7.703h40.611c4.246 0 7.702 3.454 7.702 7.703v11.203h-4.201V28.473a3.506 3.506 0 0 0-3.501-3.501H18.093a3.506 3.506 0 0 0-3.501 3.5v32.21a3.506 3.506 0 0 0 3.5 3.5h16.105v4.202z" fill="#23334A"/>
        <path fill="#23334A" d="M12.491 31.974h51.815v4.2H12.49zM21.594 17.27h4.201v11.203h-4.201zM51.002 17.27h4.201v11.203h-4.201zM59.404 82.387c-10.038 0-18.205-8.167-18.205-18.205 0-10.038 8.167-18.205 18.205-18.205 10.038 0 18.205 8.167 18.205 18.205 0 10.038-8.167 18.205-18.205 18.205zm0-32.208c-7.722 0-14.004 6.282-14.004 14.003 0 7.722 6.282 14.004 14.004 14.004 7.722 0 14.004-6.282 14.004-14.004 0-7.721-6.282-14.003-14.004-14.003z"/>
    </g>
</svg>
